<?xml version="1.0" standalone="no"?>
<!DOCTYPE svg PUBLIC "-//W3C//DTD SVG 20010904//EN"
 "http://www.w3.org/TR/2001/REC-SVG-20010904/DTD/svg10.dtd">
<svg version="1.0" xmlns="http://www.w3.org/2000/svg"
 width="700.000000pt" height="700.000000pt" viewBox="0 0 700.000000 700.000000"
 preserveAspectRatio="xMidYMid meet">
<metadata>
Created by potrace 1.14, written by Peter Selinger 2001-2017
</metadata>
<g transform="translate(0.000000,700.000000) scale(0.100000,-0.100000)"
fill="#000000" stroke="none">
<path d="M3335 6869 c-1405 -60 -2637 -1014 -3059 -2369 -102 -330 -146 -630
-146 -1000 0 -396 49 -707 170 -1071 332 -999 1130 -1796 2127 -2128 364 -121
678 -171 1073 -171 228 0 349 9 547 40 1349 216 2446 1253 2747 2595 60 267
70 374 70 735 0 361 -10 468 -70 735 -226 1011 -921 1881 -1852 2317 -400 188
-842 299 -1242 314 -80 2 -158 6 -175 7 -16 2 -102 0 -190 -4z m-842 -1448
c180 -62 295 -243 272 -426 l-6 -55 -109 0 -108 0 14 38 c24 68 11 132 -39
189 -60 68 -82 73 -355 73 -197 0 -250 -3 -280 -15 -83 -35 -126 -106 -120
-200 4 -68 26 -107 85 -153 34 -25 45 -27 144 -30 l108 -4 27 -46 c15 -26 52
-73 82 -104 l55 -58 -159 0 c-188 0 -274 16 -352 62 -298 179 -241 628 93 734
28 9 122 13 316 13 248 1 282 -1 332 -18z m659 -14 c111 -54 203 -166 226
-273 l8 -39 65 3 c35 2 84 -1 109 -7 48 -11 60 -4 60 35 0 12 16 53 35 92 42
82 108 147 193 189 56 27 61 28 261 31 l204 4 -49 -50 c-27 -28 -62 -73 -79
-101 l-30 -51 -86 0 c-136 0 -192 -28 -236 -117 -45 -92 -17 -191 71 -250 l48
-33 260 0 c237 0 262 2 297 20 47 24 85 67 101 116 12 36 9 112 -5 147 -7 16
2 17 98 17 l106 0 7 -35 c13 -72 0 -167 -33 -238 -59 -126 -169 -206 -311
-228 -79 -12 -520 -7 -559 6 l-22 7 -5 -238 c-3 -132 -4 -255 -3 -274 1 -19 2
-170 2 -335 l0 -300 -28 -57 c-79 -161 -245 -254 -413 -233 l-54 6 0 106 0
105 33 -9 c93 -24 184 7 234 80 28 40 28 41 31 234 2 106 2 193 0 193 -2 0
-31 -10 -63 -21 -94 -33 -213 -27 -317 16 -14 6 -18 2 -18 -18 0 -20 -11 -32
-52 -57 -29 -18 -77 -55 -107 -83 l-53 -52 5 190 c3 105 9 204 15 220 5 19 5
41 -1 60 -5 17 -11 125 -14 240 l-5 210 -238 -4 c-266 -3 -357 6 -440 46 -151
74 -247 263 -216 428 l7 35 106 0 c96 0 105 -1 98 -17 -14 -35 -17 -111 -5
-147 16 -49 54 -92 101 -116 35 -18 60 -20 297 -20 l260 0 48 33 c139 94 113
301 -45 355 -19 7 -73 12 -120 12 l-86 0 -30 51 c-16 28 -52 73 -80 101 l-49
50 204 -4 c201 -3 206 -4 262 -31z m2060 -4 c289 -137 309 -546 36 -711 -78
-46 -164 -62 -352 -62 l-159 0 55 58 c30 31 67 78 82 104 l27 46 109 4 c104 3
110 4 147 34 21 17 48 48 60 70 41 71 23 185 -38 241 -53 49 -82 53 -341 53
-273 0 -295 -5 -355 -73 -50 -57 -63 -121 -39 -189 l14 -38 -108 0 -109 0 -6
55 c-23 181 91 361 268 425 47 17 80 19 347 17 l295 -2 67 -32z m-1629 -1630
c4 -2 7 -52 7 -110 0 -97 -1 -104 -17 -97 -10 5 -49 9 -88 9 -79 0 -113 -17
-163 -82 l-27 -36 -3 -233 -3 -233 48 22 c69 32 236 32 306 0 l47 -22 0 64 0
65 42 21 c23 12 68 46 100 77 l58 55 0 -186 c0 -141 -4 -197 -15 -231 -14 -41
-14 -51 0 -100 13 -46 16 -103 13 -343 l-3 -289 -33 -66 c-42 -85 -129 -168
-209 -198 -64 -25 -162 -36 -217 -26 l-36 7 0 106 0 105 28 -8 c15 -5 53 -9
85 -8 71 0 129 37 164 103 22 42 23 53 23 263 0 120 -1 218 -2 218 -2 0 -28
-10 -58 -22 -77 -30 -203 -30 -280 0 -30 12 -56 22 -57 22 -2 0 -3 -28 -3 -62
l-1 -63 -60 -35 c-33 -19 -78 -53 -100 -77 -22 -24 -42 -43 -46 -43 -3 0 -3
84 0 188 4 135 9 199 21 231 15 40 15 48 0 95 -12 38 -18 107 -21 267 -8 326
12 424 106 530 80 90 215 144 331 133 30 -3 58 -8 63 -11z m-24 -1359 l31 -6
0 -105 0 -105 -27 8 c-51 16 -126 10 -168 -12 -22 -11 -53 -40 -70 -63 l-30
-43 -3 -263 c-3 -248 -2 -266 17 -303 75 -147 281 -148 358 -3 19 37 23 59 23
140 l1 96 60 35 c33 19 78 54 100 78 l40 43 -3 -203 -3 -204 -32 -64 c-41 -83
-110 -152 -193 -193 -60 -30 -72 -32 -170 -32 -97 0 -110 2 -170 31 -125 59
-212 181 -231 322 -11 86 -11 407 0 494 5 37 20 92 34 122 28 61 100 144 154
177 76 47 197 70 282 53z"/>
<path d="M3444 4891 c-48 -12 -92 -42 -122 -85 -27 -39 -27 -41 -30 -233 -2
-106 -2 -193 0 -193 2 0 29 9 61 20 82 29 203 27 280 -4 l57 -24 0 185 c0 149
-3 190 -16 216 -28 55 -75 97 -128 112 -54 16 -56 16 -102 6z"/>
<path d="M3399 4200 c-62 -32 -65 -44 -23 -76 50 -38 142 -46 200 -16 57 29
68 45 46 65 -52 47 -160 61 -223 27z"/>
<path d="M3410 2824 l-35 -15 30 -16 c39 -21 131 -21 170 0 l30 16 -37 15
c-47 20 -112 20 -158 0z"/>
</g>
</svg>
