<svg xmlns="http://www.w3.org/2000/svg" xml:space="preserve" width="180" height="40" style="shape-rendering:geometricPrecision;text-rendering:geometricPrecision;image-rendering:optimizeQuality;fill-rule:evenodd;clip-rule:evenodd" viewBox="0 0 13547 2845"><defs><style>.fil1{fill:#000;fill-rule:nonzero}</style></defs><g id="Layer_x0020_1_0"><g id="polygon-logo.cdr"><path d="M2399 868c-59-36-135-36-199 0l-458 277-311 181-458 277c-59 36-135 36-199 0l-364-217c-59-36-100-102-100-175V784c0-72 35-138 100-175l358-211c59-36 135-36 199 0l358 211c59 36 100 102 100 175v277l311-187V597c0-72-35-138-100-175L973 25c-59-36-135-36-199 0L99 422C34 458-1 524-1 597v801c0 72 35 138 100 175l675 397c59 36 135 36 199 0l458-271 311-187 458-271c59-36 135-36 199 0l358 211c59 36 100 102 100 175v428c0 72-35 138-100 175l-358 217c-59 36-135 36-199 0l-358-211c-59-36-100-102-100-175v-277l-311 187v277c0 72 35 138 100 175l675 397c59 36 135 36 199 0l675-397c59-36 100-102 100-175v-801c0-72-35-138-100-175l-680-403z" style="fill:#794fdd;fill-rule:nonzero"/><path d="M4418 2590v-665c72 91 201 142 352 142 384 0 644-275 644-694s-238-694-612-694c-172 0-305 64-384 168V700h-368v1890h368zm307-844c-199 0-329-150-329-374 0-227 130-376 329-376 193 0 326 150 326 376 0 224-132 374-326 374zM6251 2067c411 0 705-294 705-694s-294-694-705-694-705 294-705 694 294 694 705 694zm0-320c-199 0-334-152-334-374 0-224 135-376 334-376s334 152 334 376c0 222-135 374-334 374zM7546 2046V115h-368v1931zM8653 700l-278 868-281-868h-376l485 1335-196 555h352l188-550 485-1340zM10067 833c-74-93-207-155-368-155-390 0-625 275-625 694s236 694 631 694c156 0 297-59 366-158v176c0 126-82 214-193 214h-615v291h673c302 0 503-184 503-465V698h-371v134zm-305 913c-196 0-326-147-326-374s130-376 326-376c199 0 329 150 329 376 0 227-130 374-329 374zM11366 2067c411 0 705-294 705-694s-294-694-705-694-705 294-705 694 294 694 705 694zm0-320c-199 0-334-152-334-374 0-224 135-376 334-376s334 152 334 376c0 222-135 374-334 374zM12643 2046v-737c0-174 114-299 276-299 154 0 257 117 257 280v756h371v-838c0-310-196-529-498-529-183 0-331 77-405 208V700h-371v1346h371z" class="fil1"/></g></g></svg>