<svg xmlns="http://www.w3.org/2000/svg" xmlns:xlink="http://www.w3.org/1999/xlink" width="700pt" height="700pt" viewBox="0 0 700 700"><path d="M203.27 548.8c32.613 0 63.258-12.699 86.32-35.75L392.64 410c23.059-23.062 35.758-53.719 35.758-86.332 0-54.039-34.699-100.97-86.328-116.75l-6.55 21.414c42.155 12.906 70.48 51.207 70.48 95.336 0 26.621-10.372 51.656-29.189 70.48l-103.05 103.05c-18.84 18.828-43.87 29.199-70.492 29.199-54.96 0-99.668-44.707-99.668-99.668 0-26.621 10.371-51.656 29.188-70.48l103.05-103.05a101.399 101.399 0 0 1 10.414-9.07l-13.496-17.875A124.213 124.213 0 0 0 220 237.352l-103.05 103.05C93.902 363.46 81.2 394.117 81.2 426.73c0 67.3 54.77 122.07 122.07 122.07z"/><path d="M496.73 11.199c-32.613 0-63.258 12.699-86.32 35.75l-103.05 103.05c-23.059 23.062-35.758 53.719-35.758 86.332 0 58.32 41.496 108.71 98.66 119.83l4.277-21.984C327.867 325.091 294 283.954 294 236.333c0-26.621 10.371-51.656 29.188-70.48l103.05-103.05c18.84-18.828 43.871-29.199 70.492-29.199 54.961 0 99.668 44.707 99.668 99.668 0 26.621-10.37 51.656-29.188 70.48l-103.06 103.06a98.437 98.437 0 0 1-9.039 7.996l13.777 17.652a117.08 117.08 0 0 0 11.098-9.824l103.05-103.05c23.062-23.047 35.766-53.703 35.766-86.316 0-67.301-54.77-122.07-122.07-122.07zM518 347.2c-55.574 0-100.8 45.215-100.8 100.8S462.427 548.8 518 548.8 618.8 503.585 618.8 448 573.573 347.2 518 347.2zm0 179.2c-43.23 0-78.398-35.18-78.398-78.398 0-43.223 35.168-78.398 78.398-78.398s78.398 35.18 78.398 78.398c0 43.223-35.168 78.398-78.398 78.398z"/><path d="M543.68 406.48 518 432.164l-25.68-25.684-15.84 15.84L502.164 448l-25.684 25.68 15.84 15.84L518 463.836l25.68 25.684 15.84-15.84L533.836 448l25.684-25.68z"/><use xlink:href="#l" x="70" y="728"/><use xlink:href="#b" x="111.098" y="728"/><use xlink:href="#a" x="138.715" y="728"/><use xlink:href="#h" x="176.695" y="728"/><use xlink:href="#g" x="214.484" y="728"/><use xlink:href="#a" x="241.254" y="728"/><use xlink:href="#f" x="279.234" y="728"/><use xlink:href="#e" x="338.816" y="728"/><use xlink:href="#d" x="378.902" y="728"/><use xlink:href="#c" x="434.902" y="728"/><use xlink:href="#a" x="477.586" y="728"/><use xlink:href="#k" x="515.566" y="728"/><use xlink:href="#b" x="548.762" y="728"/><use xlink:href="#j" x="576.379" y="728"/><use xlink:href="#i" x="595.574" y="728"/></svg>